
<svg xmlns="http://www.w3.org/2000/svg" 
     xmlns:xlink="http://www.w3.org/1999/xlink" 
     width="118" height="75"
     viewBox="0 0 118 75"
     style="enable-background:new 0 0 118 150;">
  <style type="text/css">
    .st0{fill:#4DFFD0;}
    .st1{fill:#494949;}
    .st2{fill:#AA81FD;}
    .st3{fill:#7531FF;}
  </style>
  <circle class="st0" cx="86" cy="32.4" r="31"/>
  <g>
    <polygon class="st1" points="86,13.3 98.1,13.3 90.7,25.9 99,25.9 75.3,53.2 83.7,34.2 76.3,34.2 	"/>
  </g>
  <g>
    <g>
      <path class="st2" d="M15.8,47.5c-1.3,0.6-3.1,1-5.3,1c-2.8,0-5.1-0.8-6.7-2.5c-1.6-1.6-2.4-3.9-2.4-6.7c0-2.9,0.9-5.4,2.7-7.2
			c1.8-1.8,4.2-2.7,7.1-2.7c1.8,0,3.4,0.2,4.6,0.7v4.1c-1.2-0.7-2.6-1.1-4.3-1.1c-1.7,0-3.1,0.5-4.2,1.6c-1.1,1.1-1.6,2.5-1.6,4.5
			c0,1.8,0.5,3.3,1.5,4.3c1,1,2.3,1.6,4.1,1.6c1.6,0,3.1-0.4,4.5-1.2V47.5z"/>
      <path class="st2" d="M24.9,48.5c-2.2,0-4-0.6-5.2-1.8c-1.2-1.2-1.9-2.9-1.9-5.1c0-2.2,0.6-3.9,1.9-5.2c1.3-1.2,3-1.8,5.3-1.8
			s4,0.6,5.2,1.8c1.2,1.2,1.8,2.8,1.8,4.9c0,2.2-0.6,4-1.9,5.2C28.9,47.9,27.1,48.5,24.9,48.5z M25,37.7c-0.9,0-1.7,0.3-2.2,1
			s-0.8,1.6-0.8,2.8c0,2.5,1,3.8,3,3.8c1.9,0,2.9-1.3,2.9-4C28,39,27,37.7,25,37.7z"/>
      <path class="st2" d="M47.3,35l-4.9,13.2h-4.7L33.1,35h4.4l2.3,8.1c0.3,0.9,0.4,1.7,0.4,2.3h0.1c0.1-0.6,0.2-1.3,0.5-2.2l2.3-8.2
			C43.1,35,47.3,35,47.3,35z"/>
      <path class="st2" d="M51.1,32.9c-0.7,0-1.2-0.2-1.7-0.6c-0.4-0.4-0.6-0.9-0.6-1.5s0.2-1.1,0.6-1.5c0.4-0.4,1-0.6,1.7-0.6
			s1.2,0.2,1.7,0.6c0.4,0.4,0.6,0.9,0.6,1.5s-0.2,1.1-0.6,1.5C52.3,32.7,51.8,32.9,51.1,32.9z M53,43.7c0,0.6,0.1,1,0.4,1.3
			c0.3,0.3,0.6,0.4,1.1,0.4c0.2,0,0.4,0,0.7-0.1c0.2,0,0.4-0.1,0.7-0.1v2.8c-0.5,0.1-1,0.2-1.5,0.3c-0.5,0.1-1.1,0.1-1.7,0.1
			c-0.5,0-1-0.1-1.5-0.3c-0.4-0.2-0.8-0.4-1.1-0.8c-0.3-0.3-0.5-0.7-0.7-1.2c-0.2-0.5-0.3-1-0.3-1.6v-9.7h4.1v8.8H53z"/>
      <path class="st2" d="M70.5,48.2h-4.1v-1.8h-0.1c-0.9,1.4-2.3,2.1-4.1,2.1c-1.6,0-2.9-0.6-4-1.7c-1-1.1-1.5-2.8-1.5-4.9
			c0-2.2,0.5-4,1.6-5.3c1.1-1.3,2.5-1.9,4.4-1.9c1.7,0,2.8,0.6,3.6,1.8h0.1v-7.8h4.1C70.5,28.7,70.5,48.2,70.5,48.2z M66.5,41.7v-1
			c0-0.8-0.2-1.6-0.7-2.1c-0.5-0.6-1.1-0.8-1.9-0.8c-0.9,0-1.6,0.3-2.1,1c-0.5,0.7-0.8,1.7-0.8,2.9c0,1.1,0.2,2,0.7,2.6
			c0.5,0.6,1.2,0.9,2,0.9c0.8,0,1.5-0.3,2-1C66.2,43.7,66.5,42.8,66.5,41.7z"/>
    </g>
  </g>
  <g>
    <g>
      <path class="st3" d="M16.2,53.4v15.1H12V56.8H6.3v11.8H2V53.4H16.2z"/>
      <path class="st3" d="M30,62v6.5h-3.9V67c-0.6,1.1-1.7,1.7-3.5,1.7c-2.8,0-4.4-1.6-4.4-3.7c0-2.1,1.6-3.6,5.2-3.6h2.3
			c-0.1-1.2-0.9-1.8-2.5-1.8c-1.1,0-2.3,0.4-3.1,1l-1.4-2.8c1.3-0.9,3.4-1.3,5.2-1.3C27.8,56.6,30,58.4,30,62z M25.9,64.8v-1h-1.7
			c-1.3,0-1.8,0.5-1.8,1.2s0.6,1.2,1.5,1.2C24.8,66.2,25.6,65.8,25.9,64.8z"/>
      <path class="st3" d="M42.9,60.1h-3.8v8.4h-4.1v-8.4h-3.8v-3.3H43v3.3H42.9z"/>
      <path class="st3" d="M57.8,62.7c0,3.8-2.5,6.1-5.8,6.1c-1.3,0-2.4-0.4-3.3-1.2v5.3h-4.2V56.8h4v1.2c0.8-0.9,1.9-1.3,3.5-1.3
			C55.1,56.6,57.8,59,57.8,62.7z M53.6,62.7c0-1.7-1.1-2.8-2.4-2.8c-1.3,0-2.4,1-2.4,2.8c0,1.7,1.1,2.8,2.4,2.8
			C52.5,65.6,53.6,64.5,53.6,62.7z"/>
      <path class="st3" d="M71.9,56.8L66.8,69c-1.2,3-2.9,4-5.3,4c-1.2,0-2.6-0.4-3.4-1l1.4-2.8c0.5,0.4,1.2,0.7,1.8,0.7
			c0.8,0,1.2-0.3,1.6-1l-5-11.9h4.3l2.8,7.2l2.9-7.2h3.8V56.8z"/>
      <path class="st3" d="M84.3,56.8v11.8h-4.2v-8.4h-2.9L77.1,62c-0.2,4.3-0.9,6.9-4,6.9c-0.6,0-1.2-0.1-2-0.3l0.2-3.4
			c0.2,0,0.4,0,0.5,0c1.4,0,1.6-1.5,1.6-3.6l0.2-4.9C73.6,56.8,84.3,56.8,84.3,56.8z"/>
      <path class="st3" d="M98.7,64.5c0,2.6-2,4.2-5.3,4.2H87V56.8h4.1v3.7h2.8C97,60.5,98.7,61.9,98.7,64.5z M94.5,64.4
			c0-0.9-0.6-1.3-1.5-1.3h-1.8v2.7H93C93.9,65.8,94.5,65.3,94.5,64.4z"/>
    </g>
  </g>
  <g>
  </g>
  <g>
  </g>
  <g>
  </g>
  <g>
  </g>
  <g>
  </g>
  <g>
  </g>
  <g>
  </g>
  <g>
  </g>
  <g>
  </g>
  <g>
  </g>
  <g>
  </g>
  <g>
  </g>
  <g>
  </g>
  <g>
  </g>
  <g>
  </g>
</svg>

